<svg width="200" height="200" viewBox="0 0 200 200" fill="none" xmlns="http://www.w3.org/2000/svg">
  <rect width="200" height="200" rx="42" fill="#0E121C"/>
  
  <defs>
    <linearGradient id="bookGlow" x1="0" y1="0" x2="0" y2="24" gradientUnits="userSpaceOnUse">
      <stop offset="0%" stop-color="#7DD3FC" />
      <stop offset="100%" stop-color="#4F46E5" />
    </linearGradient>
  </defs>

  <g transform="translate(76, 25) scale(2)" stroke="#FBBF24" stroke-width="2.5" stroke-linecap="round" stroke-linejoin="round" fill="none">
    <circle cx="12" cy="12" r="5" />
    <line x1="12" y1="17" x2="12" y2="28" />
    <line x1="12" y1="22" x2="16" y2="22" />
    <line x1="12" y1="26" x2="15" y2="26" />
  </g>

  <g transform="translate(40, 90) scale(5)" stroke="url(#bookGlow)" stroke-width="1.8" stroke-linecap="round" stroke-linejoin="round" fill="none">
    <path d="M2 3h6a4 4 0 0 1 4 4v14a3 3 0 0 0-3-3H2z"/>
    <path d="M22 3h-6a4 4 0 0 0-4 4v14a3 3 0 0 1 3-3h7z"/>
  </g>
</svg>
